# xmcd
#
# Track frame offsets:
#	150
#	10595
#	33220
#	57280
#	74460
#	94800
#	115267
#	118892
#	138110
#	156967
#
# Disc length: 2528 seconds
#
# Revision: 8
# Processed by: cddbd v1.5.2PL0 Copyright (c) Steve Scherf et al.
# Submitted via: Jack! The Knife 20 Magnifico
#
DISCID=8009de0a
DTITLE=Coldplay - Parachutes
DYEAR=2000
DGENRE=BritPop
TTITLE0=Don't Panic
TTITLE1=Shiver
TTITLE2=Spies
TTITLE3=Sparks
TTITLE4=Yellow
TTITLE5=Trouble
TTITLE6=Parachutes
TTITLE7=High Speed
TTITLE8=We Never Change
TTITLE9=Everything's Not Lost - Life Is For Living
EXTD=Coldplay, Ken Nelson, Chris Allison
EXTT0=Berryman, Buckland, Champion, Martin
EXTT1=Berryman, Buckland, Champion, Martin
EXTT2=Berryman, Buckland, Champion, Martin
EXTT3=Berryman, Buckland, Champion, Martin
EXTT4=Berryman, Buckland, Champion, Martin
EXTT5=Berryman, Buckland, Champion, Martin
EXTT6=Berryman, Buckland, Champion, Martin
EXTT7=Berryman, Buckland, Champion, Martin
EXTT8=Berryman, Buckland, Champion, Martin
EXTT9=Berryman, Buckland, Champion, Martin
PLAYORDER=
